PathFileType	4	(X/Y/Z)	s10c0101.trc
DataRate	CameraRate	NumFrames	NumMarkers	Units	OrigDataRate	OrigDataStartFrame	OrigNumFrames
200	200	4	49	mm	200	1500	2000
Frame#	Time	racr			lacr			c7			jug			rlel			rdr			llel			ldr			s2			lic			ric			lasi			rasi			rpsi			lpsi			rgt			lgt			rth1			rth2			rth3			rth4			rlfc			rmfc			rsh1			rsh2			rsh3			rsh4			rlmal			rmmal			rcal			rtoe			rmt5			lth1			lth2			lth4			lth3			llfc			lmfc			llmal			lcal			lmt5			lsh1			lsh2			lsh3			lsh4			ltoe			SBIKE			LBIKE			RBIKE			
		X1	Y1	Z1	X2	Y2	Z2	X3	Y3	Z3	X4	Y4	Z4	X5	Y5	Z5	X6	Y6	Z6	X7	Y7	Z7	X8	Y8	Z8	X9	Y9	Z9	X10	Y10	Z10	X11	Y11	Z11	X12	Y12	Z12	X13	Y13	Z13	X14	Y14	Z14	X15	Y15	Z15	X16	Y16	Z16	X17	Y17	Z17	X18	Y18	Z18	X19	Y19	Z19	X20	Y20	Z20	X21	Y21	Z21	X22	Y22	Z22	X23	Y23	Z23	X24	Y24	Z24	X25	Y25	Z25	X26	Y26	Z26	X27	Y27	Z27	X28	Y28	Z28	X29	Y29	Z29	X30	Y30	Z30	X31	Y31	Z31	X32	Y32	Z32	X33	Y33	Z33	X34	Y34	Z34	X35	Y35	Z35	X36	Y36	Z36	X37	Y37	Z37	X38	Y38	Z38	X39	Y39	Z39	X40	Y40	Z40	X41	Y41	Z41	X42	Y42	Z42	X43	Y43	Z43	X44	Y44	Z44	X45	Y45	Z45	X46	Y46	Z46	X47	Y47	Z47	X48	Y48	Z48	X49	Y49	Z49	
1500	7.5000	434.486332	1255.502939	-50.268373	384.348506	1277.043787	-373.606072	369.279251	1326.724192	-198.541113	380.289426	1183.093264	-215.734324	472.714471	1000.908441	47.307623	639.054997	876.830782	-42.796125	417.427632	998.223463	-444.113910	628.112011	891.524407	-402.894851	-123.665655	1083.450968	-181.140167	30.623295	1122.590432	-341.341180	53.702390	1097.047804	-33.276598	71.155466	1043.904425	-312.593971	57.831223	1014.646414	-56.578358	-88.068423	1136.191923	-118.985339	-87.676031	1151.161252	-229.985068	-50.429237	968.749320	-9.268648	-30.285462	1003.158425	-387.149846	26.986130	841.061147	7.461181	92.715345	782.045991	-7.574347	116.958567	701.391912	-22.832578	123.339023	804.114772	-11.718709	180.219382	617.829268	-43.993115	168.912377	608.473733	-158.526450	141.351600	510.106160	-17.914831	159.853785	424.438222	-33.414242	134.382057	342.131675	-39.487508	190.239244	427.032403	-57.458307	124.024045	243.047476	-56.403299	143.316552	254.628130	-136.009707	71.665750	227.816018	-104.427557	311.005451	183.090191	-102.285423	226.576170	164.125970	-40.062121	96.423415	963.237465	-396.155800	180.548432	970.669766	-374.365812	182.932570	1000.823686	-352.135103	261.932240	934.480321	-371.281059	365.814564	886.190220	-341.862969	350.266934	857.444862	-219.725450	102.969719	619.318133	-377.310718	47.357667	632.020145	-334.468463	110.627665	467.340534	-399.303966	279.551123	804.037323	-385.851928	241.151554	725.859356	-376.021992	167.844941	676.052902	-382.184480	262.285147	709.165828	-349.940880	182.133593	416.856108	-344.946524	-218.156078	833.994110	-212.963501	-104.006196	80.512358	-418.165189	-103.927512	80.190602	-18.212447	
1501	7.5050	434.841904	1255.146215	-51.600662	383.769943	1276.475188	-375.845914	369.751501	1326.583034	-200.156900	379.377693	1182.434262	-215.355944	472.919335	1001.414669	46.127574	639.152943	876.773934	-42.844175	416.798347	997.335781	-444.810085	627.859497	891.711900	-402.856925	-121.989898	1083.859904	-177.257695	30.783644	1124.435686	-342.409120	55.740130	1097.078072	-33.518492	70.199158	1045.294225	-310.582874	59.252934	1015.316975	-57.909836	-87.045054	1137.246221	-117.591906	-87.459721	1151.994775	-228.615468	-50.342140	969.253365	-9.383073	-31.232573	1007.361351	-387.115040	25.451285	841.295343	8.123157	89.923334	781.109663	-6.689740	112.550518	699.827112	-21.565546	120.812755	802.498907	-11.185139	174.090870	615.133898	-42.971323	161.703677	605.411007	-157.900095	134.481928	507.713788	-17.316695	152.285787	421.807769	-32.990942	126.033122	339.842692	-39.221271	182.782755	424.208519	-56.677940	115.354501	240.354630	-56.275147	135.050115	251.754869	-135.654595	63.150726	225.893793	-104.582511	301.609356	177.818656	-101.941622	216.892888	160.080025	-39.912285	96.356151	968.978917	-396.456874	179.943083	977.786383	-373.692248	181.532387	1007.887764	-351.077543	262.209650	943.555657	-370.274330	368.611406	898.318487	-341.211902	354.845580	870.634842	-217.951594	114.102184	624.709944	-377.442176	58.514592	636.537186	-334.844570	121.457347	471.724048	-398.883786	286.182290	814.791914	-384.626584	249.957651	735.573039	-375.101660	177.863758	683.858272	-381.940694	271.254545	719.302191	-349.176749	192.269336	420.533541	-344.935447	-218.080521	833.985258	-212.944109	-103.982302	80.515275	-418.146572	-104.005280	80.287457	-18.122293	
1502	7.5100	435.234694	1254.731433	-52.917129	383.640426	1275.798709	-378.035965	370.224034	1326.437764	-201.760050	378.630738	1181.605905	-215.071817	473.014067	1001.702671	44.659207	639.248144	876.737569	-42.860199	415.687844	996.647302	-445.891386	627.665212	891.799072	-402.712460	-119.855297	1086.900804	-177.295729	30.961132	1126.185258	-342.869502	57.888117	1097.157997	-34.088838	67.123066	1044.559960	-304.543299	60.571141	1015.788596	-59.349904	-85.402958	1137.490017	-114.943276	-87.062421	1153.254632	-227.664882	-49.545979	970.317828	-9.339860	-32.154962	1011.508342	-387.389158	23.815609	841.800369	8.630397	87.343018	780.432257	-5.821725	108.470575	698.666509	-20.571258	118.592628	801.233575	-10.448685	168.514378	612.821736	-41.999727	155.390943	603.272746	-157.485303	127.875010	505.758416	-16.782683	144.625338	419.657498	-32.571505	117.245303	337.948169	-39.038526	175.359718	421.667252	-56.040070	106.167064	238.346236	-56.190571	126.667917	249.574255	-135.422898	54.072611	224.593780	-104.580842	291.891924	173.311805	-101.676612	206.896804	156.614686	-39.794617	96.037008	974.439996	-396.650606	179.216918	984.842730	-373.268214	179.942903	1014.378712	-349.942970	262.278077	952.659118	-370.232075	372.050935	910.794693	-339.207484	359.938870	882.446735	-216.689669	123.813297	629.045110	-377.014645	68.060297	639.534656	-334.213249	132.269852	475.503700	-398.697363	292.386196	825.304590	-383.452212	258.477671	745.063622	-374.526928	187.656624	691.149669	-380.955096	279.942747	729.051063	-347.625650	202.603277	424.180076	-344.648597	-218.065437	834.203255	-213.111060	-103.946123	80.518998	-418.094067	-103.961583	80.300230	-18.084625	
1503	7.5150	435.638041	1254.267550	-54.203301	383.627555	1275.007295	-380.047610	370.668987	1326.320076	-203.364822	377.983871	1180.932455	-215.107797	473.046911	1002.039716	43.021124	639.368638	876.650352	-42.899411	415.449190	995.791996	-446.458495	627.526060	891.794880	-402.526114	-122.675195	1087.429737	-179.816579	31.427858	1128.113493	-343.545754	59.934208	1097.283001	-34.888026	64.417417	1044.096554	-299.588915	61.598586	1016.049861	-60.759500	-84.260401	1138.707966	-113.924994	-86.558393	1154.534542	-227.063659	-49.023895	971.232763	-8.873903	-32.948489	1015.499159	-387.958725	22.318822	842.436725	8.991776	84.744002	779.846764	-5.135632	104.768077	697.846028	-19.565948	116.653154	800.323834	-9.672290	163.617937	610.845245	-41.035678	150.054219	602.226087	-157.094156	121.521340	504.148836	-16.229621	136.901675	417.854286	-32.097649	108.200484	336.722616	-39.067644	167.892519	419.408054	-55.303552	96.725119	236.717244	-56.358699	119.450317	248.816025	-135.775159	44.722415	223.560592	-104.895831	281.943858	169.567229	-101.434117	196.569589	153.869859	-39.724546	95.421887	979.423461	-396.708808	178.251575	991.388821	-372.784793	178.406302	1020.560918	-348.836892	262.063347	961.231913	-370.298807	374.396755	923.406972	-338.715651	363.832561	894.216940	-215.207853	132.866054	633.092802	-377.227023	77.447439	643.132342	-334.563978	142.947678	478.864379	-398.580124	298.283494	835.600255	-382.227820	266.753903	754.475005	-374.184700	197.240827	699.050645	-381.543894	288.410270	739.040722	-347.293919	213.621852	428.180930	-344.498628	-218.285784	834.223341	-212.969093	-103.938208	80.567884	-418.075408	-103.930651	80.336004	-18.069376	
